<svg xmlns="http://www.w3.org/2000/svg" width="16.531" height="12.001" viewBox="0 0 16.531 12.001">
  <path id="Path_162" data-name="Path 162" d="M6.162,7.529V3.135l4.2,2.2Zm9.214-5.156A3.4,3.4,0,0,0,14.759.821,2.211,2.211,0,0,0,13.2.158C11.029,0,7.769,0,7.769,0H7.762S4.5,0,2.329.158A2.211,2.211,0,0,0,.772.821,3.4,3.4,0,0,0,.155,2.373,23.831,23.831,0,0,0,0,4.9V6.091A23.813,23.813,0,0,0,.155,8.623a3.4,3.4,0,0,0,.617,1.552,2.622,2.622,0,0,0,1.713.669c1.243.12,5.281.157,5.281.157s3.264,0,5.437-.163a2.213,2.213,0,0,0,1.556-.663,3.4,3.4,0,0,0,.617-1.552,23.813,23.813,0,0,0,.155-2.531V4.9a23.831,23.831,0,0,0-.155-2.532Z" transform="translate(0.5 0.5)" fill="#fff" stroke="rgba(0,0,0,0)" stroke-width="1" fill-rule="evenodd"/>
</svg>