<svg xmlns="http://www.w3.org/2000/svg" width="16.531" height="16.531" viewBox="0 0 16.531 16.531">
  <path id="Path_161" data-name="Path 161" d="M7.766,0c2.109,0,2.373.009,3.2.047a5.706,5.706,0,0,1,1.885.361,3.806,3.806,0,0,1,1.375.9,3.806,3.806,0,0,1,.9,1.375,5.706,5.706,0,0,1,.361,1.885c.038.828.047,1.093.047,3.2s-.009,2.373-.047,3.2a5.706,5.706,0,0,1-.361,1.885,3.97,3.97,0,0,1-2.271,2.271,5.706,5.706,0,0,1-1.885.361c-.828.038-1.093.047-3.2.047s-2.373-.009-3.2-.047a5.706,5.706,0,0,1-1.885-.361,3.806,3.806,0,0,1-1.375-.9,3.806,3.806,0,0,1-.9-1.375,5.706,5.706,0,0,1-.361-1.885C.009,10.139,0,9.875,0,7.766s.009-2.373.047-3.2A5.706,5.706,0,0,1,.408,2.679,3.806,3.806,0,0,1,1.3,1.3a3.806,3.806,0,0,1,1.375-.9A5.706,5.706,0,0,1,4.564.047C5.392.009,5.657,0,7.766,0Zm0,1.4c-2.073,0-2.319.008-3.138.045a4.3,4.3,0,0,0-1.442.268,2.4,2.4,0,0,0-.893.581,2.4,2.4,0,0,0-.581.893,4.3,4.3,0,0,0-.268,1.442C1.407,5.447,1.4,5.692,1.4,7.766s.008,2.319.045,3.138a4.292,4.292,0,0,0,.268,1.442,2.4,2.4,0,0,0,.581.893,2.4,2.4,0,0,0,.893.581,4.3,4.3,0,0,0,1.442.268c.819.037,1.064.045,3.138.045s2.319-.008,3.138-.045a4.3,4.3,0,0,0,1.442-.268,2.571,2.571,0,0,0,1.474-1.474,4.292,4.292,0,0,0,.268-1.442c.037-.819.045-1.065.045-3.138s-.008-2.319-.045-3.138a4.3,4.3,0,0,0-.268-1.442,2.4,2.4,0,0,0-.581-.893,2.4,2.4,0,0,0-.893-.581A4.3,4.3,0,0,0,10.9,1.444C10.085,1.407,9.839,1.4,7.766,1.4Zm0,2.379A3.988,3.988,0,1,1,3.778,7.766,3.987,3.987,0,0,1,7.766,3.778Zm0,6.576A2.589,2.589,0,1,0,5.177,7.766,2.589,2.589,0,0,0,7.766,10.354ZM12.843,3.62a.932.932,0,1,1-.932-.932A.932.932,0,0,1,12.843,3.62Z" transform="translate(0.5 0.5)" fill="#fff" stroke="rgba(0,0,0,0)" stroke-width="1" fill-rule="evenodd"/>
</svg>