<svg xmlns="http://www.w3.org/2000/svg" width="17.175" height="13.992" viewBox="0 0 17.175 13.992">
  <path id="Path_160" data-name="Path 160" d="M13.942,3.143a9.013,9.013,0,0,1-9.057,9.479A9.019,9.019,0,0,1,0,11.19a6.407,6.407,0,0,0,4.717-1.32A3.188,3.188,0,0,1,1.741,7.658,3.2,3.2,0,0,0,3.18,7.6,3.19,3.19,0,0,1,.624,4.439a3.168,3.168,0,0,0,1.444.4A3.19,3.19,0,0,1,1.081.583a9.046,9.046,0,0,0,6.567,3.33,3.189,3.189,0,0,1,5.43-2.907A6.369,6.369,0,0,0,15.1.233,3.193,3.193,0,0,1,13.7,2a6.354,6.354,0,0,0,1.83-.5,6.47,6.47,0,0,1-1.59,1.65" transform="translate(0.27 0.87)" fill="#fff" stroke="rgba(0,0,0,0)" stroke-width="1" fill-rule="evenodd"/>
</svg>