<svg width="30" height="28" viewBox="0 0 30 28" fill="none" xmlns="http://www.w3.org/2000/svg">
    <g opacity="0.65">
        <path d="M15 25C12.0618 25 9.29947 23.8558 7.2218 21.7782C5.14421 19.7005 4 16.9382 4 14C4 11.0618 5.14421 8.29947 7.2218 6.2218C9.29947 4.14421 12.0618 3 15 3C17.9382 3 20.7005 4.14421 22.7782 6.2218C24.8558 8.29947 26 11.0618 26 14C26 16.9382 24.8558 19.7005 22.7782 21.7782C20.7005 23.8558 17.9382 25 15 25ZM15 4.71875C9.88229 4.71875 5.71875 8.88229 5.71875 14C5.71875 19.1177 9.88229 23.2812 15 23.2812C20.1177 23.2812 24.2812 19.1177 24.2812 14C24.2812 8.88229 20.1177 4.71875 15 4.71875Z" fill="#B9C5E1"/>
        <path d="M21.7031 13.1406C21.703 13.1406 21.7029 13.1406 21.7028 13.1406L19.6478 13.1413C19.7972 11.9276 20.2764 10.7861 21.0353 9.86168C21.3365 9.49481 21.2832 8.95332 20.9164 8.6522C20.5495 8.35103 20.008 8.40427 19.7069 8.77113C18.6969 10.0015 18.0766 11.5285 17.919 13.1419L15.7734 13.1426V7.29688C15.7734 6.82224 15.3887 6.4375 14.9141 6.4375C14.4394 6.4375 14.0547 6.82224 14.0547 7.29688V13.1432L12.0382 13.1439C11.8809 11.5298 11.2606 10.0019 10.2501 8.77113C9.94898 8.40431 9.40749 8.35098 9.04066 8.6522C8.67384 8.95332 8.6206 9.49486 8.92173 9.86168C9.68124 10.7868 10.1607 11.9295 10.3097 13.1444L8.33954 13.1451C7.86491 13.1453 7.4803 13.5301 7.48047 14.0048C7.48064 14.4793 7.86534 14.8638 8.33984 14.8638H8.34014L10.299 14.8632C10.1366 16.0713 9.65099 17.2113 8.89238 18.1399C8.59211 18.5074 8.6466 19.0488 9.0142 19.3491C9.17382 19.4795 9.36615 19.543 9.55741 19.543C9.8065 19.543 10.0536 19.4352 10.2234 19.2273C11.2315 17.9934 11.8583 16.4686 12.0299 14.8626L14.0547 14.862V20.7031C14.0547 21.1778 14.4394 21.5625 14.9141 21.5625C15.3887 21.5625 15.7734 21.1778 15.7734 20.7031V14.8614L17.9269 14.8606C18.0983 16.4674 18.7251 17.9929 19.7336 19.2273C19.9035 19.4352 20.1505 19.543 20.3996 19.543C20.5908 19.543 20.7832 19.4795 20.9428 19.3491C21.3104 19.0488 21.3649 18.5074 21.0647 18.1399C20.3054 17.2105 19.8195 16.0693 19.6576 14.8601L21.7034 14.8594C22.1781 14.8592 22.5627 14.4743 22.5625 13.9997C22.5623 13.5252 22.1776 13.1406 21.7031 13.1406Z" fill="#B9C5E1"/>
    </g>
</svg>
