<svg width="30" height="28" viewBox="0 0 30 28" fill="none" xmlns="http://www.w3.org/2000/svg">
    <g opacity="0.65" clip-path="url(#clip0)">
        <path d="M22.986 8.63611V19.3649C22.986 21.9741 20.3328 24.0969 17.0716 24.0969H8.9862C5.72445 24.0969 3.0708 21.9737 3.0708 19.364L3.0708 8.63611C3.0708 6.02639 5.72445 3.90321 8.9862 3.90321H17.0706C20.3323 3.90321 22.986 6.02639 22.986 8.63611ZM5.0426 19.364C5.0426 21.1038 6.8117 22.5193 8.9862 22.5193H17.0716C19.2455 22.5193 21.0142 21.1042 21.0142 19.3649V8.63611C21.0142 6.8963 19.2451 5.48084 17.0706 5.48084H8.9862C6.8117 5.48084 5.0426 6.8963 5.0426 8.63611L5.0426 19.364ZM25.9437 9.42493C25.3992 9.42493 24.9578 9.77808 24.9578 10.2137V17.7864C24.9578 18.2221 25.3992 18.5752 25.9437 18.5752C26.4882 18.5752 26.9296 18.2221 26.9296 17.7864V10.2137C26.9296 9.77808 26.4882 9.42493 25.9437 9.42493Z" fill="#B9C5E1"/>
        <path d="M10.7266 17.5122V10.488L16.7362 14.0001L13.3705 16.9226" stroke="#B9C5E1" stroke-width="1.9" stroke-linecap="round" stroke-linejoin="round"/>
    </g>
    <defs>
        <clipPath id="clip0">
            <rect width="20" height="24" fill="white" transform="translate(3 24) rotate(-90)"/>
        </clipPath>
    </defs>
</svg>
