<svg width="30" height="28" viewBox="0 0 30 28" fill="none" xmlns="http://www.w3.org/2000/svg">
<g opacity="0.65">
<mask id="path-1-inside-1" fill="white">
<path d="M4.50002 13.2589C4.50002 8.69765 8.19767 5 12.759 5H17.2411C21.8024 5 25.5 8.69765 25.5 13.2589V14.4391C25.5 19.0004 21.8024 22.6981 17.2411 22.6981H4.50002V13.2589Z"/>
</mask>
<path d="M4.50002 22.6981H2.70002V24.4981H4.50002V22.6981ZM12.759 6.8H17.2411V3.2H12.759V6.8ZM23.7 13.2589V14.4391H27.3V13.2589H23.7ZM17.2411 20.8981H4.50002V24.4981H17.2411V20.8981ZM6.30002 22.6981V13.2589H2.70002V22.6981H6.30002ZM23.7 14.4391C23.7 18.0063 20.8083 20.8981 17.2411 20.8981V24.4981C22.7965 24.4981 27.3 19.9945 27.3 14.4391H23.7ZM17.2411 6.8C20.8083 6.8 23.7 9.69176 23.7 13.2589H27.3C27.3 7.70354 22.7965 3.2 17.2411 3.2V6.8ZM12.759 3.2C7.20356 3.2 2.70002 7.70353 2.70002 13.2589H6.30002C6.30002 9.69176 9.19178 6.8 12.759 6.8V3.2Z" fill="#B9C5E1" mask="url(#path-1-inside-1)"/>
<path fill-rule="evenodd" clip-rule="evenodd" d="M10.0796 10.9683C9.59302 10.9683 9.1986 11.3627 9.1986 11.8492C9.1986 12.3358 9.59302 12.7302 10.0796 12.7302H20.0637C20.5502 12.7302 20.9446 12.3358 20.9446 11.8492C20.9446 11.3627 20.5502 10.9683 20.0637 10.9683H10.0796ZM10.0791 15.4733C9.59254 15.4733 9.19812 15.8677 9.19812 16.3543C9.19812 16.8408 9.59254 17.2352 10.0791 17.2352H17.1267C17.6132 17.2352 18.0076 16.8408 18.0076 16.3543C18.0076 15.8677 17.6132 15.4733 17.1267 15.4733H10.0791Z" fill="#B9C5E1"/>
</g>
</svg>
