<svg width="104" height="104" viewBox="0 0 104 104" fill="none" xmlns="http://www.w3.org/2000/svg">
<g clip-path="url(#clip0)">
<path d="M0 -1H104V106H0V-1Z" fill="#E30A17"/>
<path d="M50.5107 39.4336H39.4268V70H33.2988V39.4336H22.3125V34.4531H50.5107V39.4336Z" fill="white"/>
<path d="M68.2598 56.3037H61.375V70H55.1982V34.4531H67.6982C71.7998 34.4531 74.9655 35.3727 77.1953 37.2119C79.4251 39.0511 80.54 41.7122 80.54 45.1953C80.54 47.5716 79.9622 49.5654 78.8066 51.1768C77.6673 52.7718 76.0723 54.0007 74.0215 54.8633L82.0049 69.6826V70H75.3887L68.2598 56.3037ZM61.375 51.3477H67.7227C69.806 51.3477 71.4336 50.8268 72.6055 49.7852C73.7773 48.7272 74.3633 47.2868 74.3633 45.4639C74.3633 43.5596 73.818 42.0866 72.7275 41.0449C71.6533 40.0033 70.042 39.4661 67.8936 39.4336H61.375V51.3477Z" fill="white"/>
</g>
<defs>
<clipPath id="clip0">
<rect width="104" height="104" rx="52" fill="white"/>
</clipPath>
</defs>
</svg>
