<svg width="30" height="28" viewBox="0 0 30 28" fill="none" xmlns="http://www.w3.org/2000/svg">
    <g opacity="0.9">
        <g opacity="0.65" clip-path="url(#clip0)">
            <path d="M15.2609 9.96496C15.2027 10.1484 13.7925 14.5133 10.0998 19.3753C9.93076 19.5979 9.67433 19.7149 9.41489 19.7149C9.23377 19.7149 9.05123 19.6579 8.89584 19.5399C8.51795 19.2529 8.44428 18.7138 8.73125 18.336C8.89369 18.1221 9.05153 17.909 9.20494 17.6971C8.12701 17.4751 7.26122 17.5331 6.6825 17.8698C6.26286 18.1139 5.9843 18.5169 5.8308 19.1015C5.36584 20.873 6.42649 22.6973 8.19519 23.1682C9.05024 23.3958 9.94159 23.2765 10.705 22.8324C11.4691 22.3878 12.0138 21.6708 12.2388 20.8136C12.3847 20.2576 12.3928 19.8421 12.2645 19.506C12.0952 19.0627 12.3173 18.5661 12.7605 18.3967C13.2037 18.2274 13.7004 18.4495 13.8698 18.8928C14.1289 19.5713 14.1392 20.3423 13.9009 21.2499C13.5591 22.5522 12.731 23.6417 11.5692 24.3177C10.793 24.7694 9.92982 25.0002 9.05466 25.0002C8.62072 25.0002 8.18398 24.9435 7.75312 24.8288C5.07194 24.1151 3.46396 21.3501 4.16865 18.6653C4.44016 17.6308 4.99517 16.8635 5.81826 16.3846C6.88381 15.7645 8.37348 15.6834 10.1263 16.1501C10.1652 16.1604 10.2039 16.1711 10.2424 16.1818C12.6364 12.4839 13.6118 9.48011 13.6232 9.44454C13.7673 8.99272 14.2506 8.74286 14.7024 8.88669C15.1544 9.03039 15.4044 9.51289 15.2609 9.96496ZM25.8322 18.6653C25.5834 17.7176 25.0734 16.9895 24.3161 16.5011C23.9172 16.2439 23.3855 16.3587 23.1283 16.7575C22.8711 17.1563 22.9859 17.6881 23.3847 17.9452C23.7858 18.2039 24.0281 18.5606 24.1701 19.1016C24.635 20.873 23.5744 22.6974 21.8057 23.1682C20.9506 23.3958 20.0593 23.2766 19.2959 22.8324C18.5318 22.3878 17.9871 21.6709 17.7621 20.8136C17.6157 20.2558 17.2417 18.8303 19.7862 17.97C19.8609 18.4116 19.9296 18.8606 19.9919 19.3159C20.0509 19.7465 20.4193 20.0587 20.8421 20.0587C20.8809 20.0587 20.9202 20.0561 20.9597 20.0507C21.4299 19.9863 21.7589 19.5531 21.6945 19.0829C21.3643 16.6704 20.8392 14.3332 20.1758 12.3241C19.4441 10.1082 18.5791 8.36708 17.6047 7.14914C17.3083 6.7786 16.7676 6.71854 16.397 7.01497C16.0265 7.3114 15.9665 7.85211 16.2629 8.22264C17.5709 9.85773 18.7096 12.7561 19.4613 16.2701C18.2975 16.6333 17.4081 17.1537 16.8155 17.8211C15.9997 18.7398 15.7523 19.9254 16.1 21.2499C16.4418 22.5522 17.2699 23.6417 18.4317 24.3177C19.208 24.7694 20.071 25.0002 20.9462 25.0002C21.3801 25.0002 21.817 24.9435 22.2478 24.8288C24.9289 24.115 26.5369 21.3501 25.8322 18.6653Z" fill="#B9C5E1"/>
            <path d="M8.56465 9.40412C8.56168 9.40412 8.55894 9.40412 8.55601 9.40412C7.45132 9.40279 6.26994 9.13098 5.04462 8.59625C4.53897 8.3756 4.17638 7.94109 4.04977 7.40413C3.92308 6.86686 4.05351 6.31572 4.40759 5.89208C6.79286 3.03824 9.64786 2.79804 11.6229 3.09911C13.7062 3.41668 15.2312 4.38862 15.2951 4.42987C15.6938 4.68712 15.8085 5.21888 15.5513 5.61765C15.2941 6.01641 14.7622 6.13111 14.3635 5.87386C14.3522 5.86669 13.0425 5.04085 11.3098 4.78988C9.09522 4.469 7.21667 5.21072 5.72606 6.99415C5.72232 6.99862 5.72022 7.00115 5.72228 7.00979C5.72421 7.01791 5.72645 7.0189 5.73186 7.02126C6.73972 7.46109 7.69057 7.68462 8.55799 7.68569H8.56448C9.59163 7.68569 10.614 7.39274 11.6034 6.81483C12.0132 6.57558 12.5394 6.7137 12.7787 7.12346C13.018 7.53322 12.8798 8.05941 12.4701 8.29874C11.2143 9.03221 9.90026 9.40412 8.56465 9.40412Z" fill="#B9C5E1"/>
        </g>
    </g>
    <defs>
        <clipPath id="clip0">
            <rect width="22" height="22" fill="white" transform="translate(4 3)"/>
        </clipPath>
    </defs>
</svg>
